<?xml version="1.0" standalone="no"?>
<!DOCTYPE svg PUBLIC "-//W3C//DTD SVG 20010904//EN"
 "http://www.w3.org/TR/2001/REC-SVG-20010904/DTD/svg10.dtd">
<svg version="1.0" xmlns="http://www.w3.org/2000/svg"
 width="700.000000pt" height="700.000000pt" viewBox="0 0 700.000000 700.000000"
 preserveAspectRatio="xMidYMid meet">
<metadata>
Created by potrace 1.14, written by Peter Selinger 2001-2017
</metadata>
<g transform="translate(0.000000,700.000000) scale(0.100000,-0.100000)"
fill="#000000" stroke="none">
<path d="M3119 5786 c-2 -2 -35 -6 -74 -10 -111 -10 -163 -19 -315 -51 -325
-69 -718 -257 -939 -450 -208 -181 -345 -374 -455 -642 -41 -101 -119 -337
-130 -393 -2 -14 -12 -53 -21 -87 -9 -35 -18 -71 -20 -80 -31 -143 -45 -222
-52 -288 -10 -100 -10 -535 0 -635 13 -138 65 -340 122 -475 64 -151 191 -369
287 -495 144 -187 420 -405 678 -535 30 -15 82 -49 115 -74 244 -191 527 -305
840 -338 87 -9 485 -9 580 0 369 35 727 202 991 465 45 45 73 63 105 71 146
37 368 125 464 184 118 73 233 153 308 215 276 229 421 431 602 837 86 194
198 541 287 888 38 150 41 174 45 329 5 155 4 167 -14 176 -10 6 -68 12 -128
13 -316 8 -678 119 -919 282 -136 91 -207 157 -431 403 -259 284 -407 406
-622 510 -83 40 -261 105 -325 118 -94 20 -235 46 -293 54 -67 9 -677 16 -686
8z"/>
</g>
</svg>
